PathFileType	4	(X/Y/Z)	C:/Users/beibeiliu/ov580/test_trc/User1\sequence.23_training_dense_right.trc
DataRate	CameraRate	NumFrames	NumMarkers	Units	OrigDataRate	OrigDataStartFrame	OrigNumFrames
120	120	12	19	mm	120	121	240
Frame#	Time	ThumbCMC			ThumbMCP			ThumbIP			ThumbTip			IndexMCP			IndexPIP			IndexTip			MiddleMCP			MiddlePIP			MiddleTip			RingMCP			RingPIP			RingTip			PinkyMCP			PinkyPIP			PinkyTip			BackHand1			BackHand2			BackHand3	
		X0	Y0	Z0	X1	Y1	Z1	X2	Y2	Z2	X3	Y3	Z3	X4	Y4	Z4	X5	Y5	Z5	X6	Y6	Z6	X7	Y7	Z7	X8	Y8	Z8	X9	Y9	Z9	X10	Y10	Z10	X11	Y11	Z11	X12	Y12	Z12	X13	Y13	Z13	X14	Y14	Z14	X15	Y15	Z15	X16	Y16	Z16	X17	Y17	Z17	X18	Y18	Z18	
120	1	185.82	40.0226	74.2966	178.387	57.6932	33.5817	164.741	55.4877	8.81234	141.23	48.7636	-6.14915	188.838	13.3824	-1.81102	178.532	42.3452	-7.49438	173.453	47.4125	26.5484	169.111	6.10097	-7.49012	158.122	35.7054	-10.035	158.309	36.8596	30.9087	143.685	4.00568	-1.42654	136.87	36.3397	-4.35224	138.851	42.2975	28.5213	123.424	-10.682	16.8296	125.678	-13.0271	-2.65812	132.122	-21.4986	-25.6728	146.615	-14.5264	58.8543	141.882	-7.55525	96.8702	176.997	-4.61521	77.9885	
121	1.00833	187.12	38.8425	73.712	178.843	59.4425	39.3091	166.345	54.4157	7.65565	142.569	48.5087	-6.94337	190.988	10.5549	1.52054	181.636	42.8606	-5.78396	176.639	46.4301	29.5576	166.877	1.95274	-4.19549	160.927	35.5208	-9.89441	159.529	32.8303	32.889	143.045	2.54053	-2.0639	138.321	36.8085	-1.77081	144.03	41.2651	30.8281	126.657	-11.3315	14.1036	130.322	-13.3513	-3.58792	133.564	-22.8271	-25.7083	146.047	-15.8098	59.7519	139.035	-8.05652	93.3103	174.123	-4.83665	76.1421	
122	1.01667	189.557	38.4576	73.6981	181.223	59.0338	37.5851	168.933	54.8187	9.72752	145.593	44.1999	-4.84806	196.132	12.388	0.264725	183.62	42.1461	-6.13723	179.557	48.0947	24.7415	171.918	1.72222	-3.47932	161.439	33.8402	-8.66449	163.23	33.867	32.539	146.253	2.77731	-3.36196	142.302	36.3653	-3.03763	142.952	40.1666	31.1837	133.305	-11.2355	12.1058	133.494	-13.1914	-3.22521	134.715	-22.3292	-28.5068	146.342	-18.6252	58.9448	138.863	-8.8051	96.2204	179.964	-4.16845	81.3285	
123	1.025	189.852	38.543	76.696	183.79	57.3134	35.723	172.259	54.401	12.2657	147.194	48.2446	-9.37909	198.806	10.8495	1.70737	187.421	39.9302	-7.73281	180.939	45.0147	30.5505	172.487	2.71078	-4.5008	165.078	36.0188	-5.61729	165.555	34.5197	32.4112	150.069	2.8926	-4.86974	146.123	35.7237	-3.40408	144.729	40.1108	28.5265	131.065	-13.979	14.8538	133.46	-15.5125	-8.35282	138.573	-25.1358	-26.3714	146.232	-18.4046	60.2219	141.638	-10.4456	95.8411	179.537	-3.96019	80.6184	
124	1.03333	188.718	35.7232	76.0096	185.267	55.0832	40.6542	174.736	54.1539	10.8206	151.538	45.1602	-5.09343	200.443	10.817	1.40826	188.602	38.816	-5.08046	184.88	45.3265	28.9512	178.428	4.73699	-5.26732	165.866	33.7942	-6.88284	164.711	32.0198	35.0462	150.403	1.21212	-2.58617	145.703	33.976	-4.26887	148.403	39.7984	30.1599	133.334	-15.6602	11.7825	136.394	-17.1382	-7.41279	144.094	-24.9364	-24.8096	149.9	-17.1016	59.6302	145.365	-9.33972	96.4017	182.08	-4.52602	80.95	
125	1.04167	190.578	35.4788	78.3808	187.607	54.4925	38.5924	177.677	52.8175	12.531	154.719	43.0514	-7.54114	202.734	7.09765	6.14532	193.366	35.9166	-5.95125	186.836	43.3658	30.8337	177.142	0.451688	-2.53199	171.686	36.4392	-2.95706	166.591	29.0187	37.2214	156.682	0.257901	-1.74593	147.656	33.7196	-2.31771	149.627	39.4617	27.4317	138.441	-14.3798	16.8978	140.73	-18.084	-0.929519	147.405	-26.7593	-21.3713	148.891	-21.2017	60.9795	143.104	-10.5511	94.3938	182.184	-5.56879	80.7949	
126	1.05	190.176	34.6995	77.9978	188.058	52.6295	41.5848	180.918	51.0002	11.6177	158.823	42.4655	-4.98294	206.512	6.4459	8.2894	191.399	34.9883	-3.32513	183.608	41.0278	30.7013	179.804	-0.271567	-3.28582	170.273	32.4701	-2.73596	165.23	27.9536	35.3179	155.601	-2.31337	-2.46342	151.329	29.5242	-3.90912	146.703	36.8031	29.9618	138.189	-17.6171	17.1362	139.527	-20.7478	-2.50371	150.463	-30.0888	-20.5291	153.904	-21.1189	62.6245	142.37	-12.8206	96.3472	183.662	-8.40532	82.4108	
127	1.05833	191.658	34.7444	78.9199	187.232	48.4829	40.9047	180.845	49.886	14.0726	159.797	39.4391	-6.20548	204.14	4.27314	7.69815	195.865	34.7046	-3.1169	187.396	41.1628	32.2662	184.535	-1.87706	0.186955	170.453	30.247	-1.42825	168.194	26.1633	37.6937	160.985	-3.99837	0.662208	150.872	30.0236	-1.78761	146.763	35.2038	28.4768	140.717	-21.6044	13.87	144.456	-23.0122	-4.47215	151.363	-34.0134	-20.5634	152.74	-21.7291	62.2666	145.758	-9.57298	99.6406	180.313	-5.75697	85.4027	
128	1.06667	193.712	37.0736	80.7257	188.414	50.773	43.6267	181.895	47.303	13.3536	159.886	36.3974	-9.63693	208.631	3.95737	8.91579	195.122	28.5851	-4.17928	186.793	38.9708	29.3749	185.233	-5.66738	3.58244	175.697	28.9772	-2.68356	170.857	25.2706	37.6661	163.307	-5.78514	-0.224899	154.735	27.3285	-2.75909	151.844	33.7823	30.5241	141.55	-23.2078	15.0266	147.847	-25.09	1.04504	156.84	-32.7271	-16.9332	154.347	-22.2532	62.221	144.972	-14.0369	98.309	181.553	-5.70025	86.7718	
129	1.075	192.137	33.6084	78.9293	190.473	47.8025	41.147	185.526	47.0416	11.7308	162.988	36.3824	-9.2327	208.124	2.0763	7.80585	199.206	28.7524	-2.73172	188.393	37.6018	30.9777	189.416	-6.64738	0.950322	175.592	24.9888	-2.99144	174.375	25.1623	37.6595	165.125	-9.40231	2.93811	156.722	21.0287	-4.93062	151.761	31.345	30.3061	146.552	-23.4067	21.4854	148.071	-29.4686	-2.26962	156.335	-38.7093	-19.4951	156.883	-22.9992	65.7197	147.797	-11.1073	100.628	185.625	-7.41732	87.7888	
130	1.08333	192.19	33.4593	81.6924	192.443	48.0911	38.8072	185.05	41.9681	11.0123	163.27	31.532	-6.26902	211.231	0.126393	12.0835	201.792	27.1132	-1.30296	187.039	35.4545	31.3052	187.121	-9.75262	1.29353	177.904	22.4954	-1.35988	172.851	24.525	34.7912	165.021	-11.8362	3.33625	158.48	20.5442	-2.17115	153.914	30.3299	31.4247	150.794	-26.5065	20.1005	150.863	-32.0865	3.44379	162.723	-43.9521	-16.2365	160.873	-24.6964	67.5309	145.082	-14.2727	99.3887	185.063	-7.93855	87.2523	
131	1.09167	192.93	31.5746	79.0152	190.557	48.1624	42.5154	185.526	42.4375	9.02599	164.463	29.6544	-7.4486	215.924	-0.183046	16.0887	201.837	24.1798	-2.12558	191.61	36.2689	30.5759	190.337	-13.747	7.44867	179.148	19.9075	-0.946916	170.724	20.5986	36.977	167.035	-15.9971	6.62462	160.029	16.2148	-2.91609	153.133	26.3583	30.5976	151.564	-31.3198	22.6385	156.765	-36.3841	1.94771	165.11	-48.3396	-12.4845	161.347	-24.4057	70.1806	150.113	-18.1504	98.4989	187.105	-10.0805	87.0924	
